# xmcd
# 
# Track frame offsets:
#     150
#     15255
#     32538
#     48919
#     67808
#     91503
#     103057
#     117715
#     131051
#     150027
#     167130
#     181962
# 
# Disc length: 2612
# 
# Revision: 0
# Processed by: cddbd v1.5.2PL0 Copyright (c) Steve Scherf et al.
# Submitted via: BonkEnc v1.0.6
# 
DISCID=850a320c
DTITLE=Irmãos Brambilla - Cruel Regresso
DYEAR=2007
DGENRE=Country
TTITLE0=Regresso
TTITLE1=Caminheiro
TTITLE2=Onde Eu Moro
TTITLE3=s Namoradas
TTITLE4=Pourri Tonico e Tinoco
TTITLE5=Desencoste da Chiquinha
TTITLE6=Mudança
TTITLE7=o de Chuva
TTITLE8=Palavras
TTITLE9=Canga do Tempo
TTITLE10=O Menino da Porteira
TTITLE11=Caipira
EXTD=Viola do Interior
EXTT0=
EXTT1=
EXTT2=
EXTT3=
EXTT4=
EXTT5=
EXTT6=
EXTT7=
EXTT8=
EXTT9=
EXTT10=
EXTT11=
PLAYORDER=
